<svg xmlns="http://www.w3.org/2000/svg"
aria-label="orcid" role="img"
viewBox="0 0 512 512"><rect
width="512" height="512"
rx="15%"
fill="#1da1f2"/><path fill="#fff" d="M119.342 73.591 C 109.749 75.635,104.456 87.138,109.069 95.913 C 114.024 105.336,127.117 106.994,134.216 99.097 C 144.257 87.930,134.065 70.452,119.342 73.591 M111.200 207.406 L 111.200 290.812 122.900 290.706 L 134.600 290.600 134.701 207.300 L 134.802 124.000 123.001 124.000 L 111.200 124.000 111.200 207.406 M170.400 207.400 L 170.400 290.800 204.677 290.800 C 246.581 290.800,251.161 290.494,263.800 286.853 C 291.851 278.772,314.549 255.648,321.177 228.400 C 321.578 226.750,322.014 225.130,322.144 224.800 C 323.761 220.718,324.342 205.337,323.210 196.600 C 318.911 163.432,298.056 138.065,267.200 128.473 C 253.497 124.212,250.650 124.000,207.288 124.000 L 170.400 124.000 170.400 207.400 M242.000 145.581 C 263.748 148.032,279.069 156.451,289.922 171.914 C 299.517 185.583,302.345 208.809,296.605 226.800 C 289.839 248.011,274.525 262.188,252.800 267.356 C 244.521 269.325,239.046 269.643,215.600 269.516 L 194.200 269.400 194.099 207.300 L 193.997 145.200 216.499 145.222 C 228.874 145.233,240.350 145.395,242.000 145.581 " stroke="none" fill="#fbfbfb" fill-rule="evenodd"></path><path id="path1" d="M184.800 0.238 C 183.810 0.318,180.502 0.581,177.448 0.821 C 174.394 1.062,171.604 1.410,171.248 1.596 C 170.892 1.782,168.043 2.249,164.918 2.633 C 161.792 3.018,159.307 3.450,159.396 3.593 C 159.484 3.736,157.946 4.081,155.978 4.360 C 154.010 4.638,152.400 5.008,152.400 5.181 C 152.400 5.355,151.545 5.624,150.500 5.779 C 147.351 6.246,146.682 6.400,146.231 6.765 C 145.994 6.956,144.720 7.329,143.400 7.593 C 142.080 7.857,140.626 8.311,140.168 8.601 C 139.711 8.891,138.650 9.238,137.810 9.372 C 136.970 9.505,135.518 9.953,134.583 10.366 C 133.648 10.780,132.327 11.240,131.646 11.390 C 130.966 11.539,130.306 11.828,130.181 12.031 C 130.055 12.234,129.641 12.400,129.261 12.400 C 128.880 12.400,127.871 12.756,127.017 13.191 C 126.164 13.626,124.506 14.261,123.333 14.602 C 122.160 14.943,121.200 15.383,121.200 15.579 C 121.200 15.776,120.615 16.061,119.900 16.213 C 119.185 16.365,118.330 16.722,118.000 17.007 C 117.670 17.292,116.649 17.726,115.731 17.970 C 114.813 18.214,114.003 18.546,113.931 18.707 C 113.722 19.175,110.653 20.552,110.060 20.445 C 109.763 20.391,109.629 20.524,109.764 20.741 C 109.998 21.120,107.347 22.261,106.670 22.072 C 106.489 22.022,106.445 22.150,106.574 22.358 C 106.702 22.565,106.266 22.854,105.606 22.999 C 104.945 23.144,104.269 23.473,104.102 23.731 C 103.936 23.989,102.405 24.904,100.700 25.765 C 98.995 26.626,97.600 27.467,97.600 27.634 C 97.600 27.801,96.968 28.146,96.196 28.401 C 95.424 28.656,94.883 29.011,94.994 29.190 C 95.104 29.368,94.758 29.624,94.225 29.758 C 93.692 29.892,93.010 30.248,92.708 30.549 C 92.407 30.850,91.557 31.409,90.818 31.791 C 90.080 32.173,89.109 32.826,88.662 33.243 C 88.215 33.659,87.613 34.000,87.325 34.000 C 87.036 34.000,86.800 34.154,86.800 34.343 C 86.800 34.532,85.675 35.374,84.300 36.215 C 82.925 37.056,81.656 37.981,81.480 38.272 C 81.304 38.562,80.939 38.800,80.669 38.800 C 80.399 38.800,79.894 39.115,79.547 39.500 C 79.199 39.885,78.410 40.560,77.792 41.000 C 77.174 41.440,76.449 42.016,76.182 42.281 C 75.914 42.545,75.584 42.650,75.448 42.514 C 75.311 42.378,75.200 42.555,75.200 42.906 C 75.200 43.258,74.830 43.664,74.378 43.807 C 73.925 43.951,72.642 44.953,71.526 46.034 C 70.410 47.115,69.349 48.000,69.167 48.000 C 68.986 48.000,68.044 48.805,67.074 49.789 C 66.104 50.772,65.241 51.537,65.155 51.489 C 65.070 51.440,61.926 54.505,58.168 58.300 C 54.411 62.095,51.419 65.200,51.520 65.200 C 51.621 65.200,50.690 66.221,49.452 67.470 C 48.213 68.718,47.200 69.896,47.200 70.086 C 47.200 70.276,46.525 71.139,45.700 72.003 C 43.892 73.896,42.818 75.215,41.141 77.600 C 40.445 78.590,39.633 79.544,39.337 79.720 C 39.042 79.896,38.800 80.292,38.800 80.600 C 38.800 80.908,38.573 81.304,38.296 81.480 C 37.744 81.831,35.570 84.985,35.113 86.100 C 34.955 86.485,34.640 86.800,34.413 86.800 C 34.186 86.800,34.000 87.025,34.000 87.300 C 33.999 87.575,33.554 88.317,33.011 88.949 C 32.467 89.581,31.916 90.436,31.784 90.849 C 31.653 91.262,31.368 91.600,31.149 91.600 C 30.931 91.600,30.855 91.765,30.979 91.966 C 31.103 92.167,31.069 92.392,30.902 92.466 C 30.446 92.668,28.400 95.781,28.400 96.273 C 28.400 96.509,28.161 96.900,27.870 97.142 C 27.578 97.384,26.633 98.981,25.770 100.691 C 24.906 102.401,23.975 103.944,23.700 104.120 C 23.425 104.296,23.200 104.688,23.200 104.991 C 23.200 105.295,22.924 105.819,22.586 106.157 C 22.248 106.495,21.991 106.823,22.014 106.886 C 22.037 106.949,21.864 107.507,21.628 108.126 C 21.393 108.745,21.200 109.450,21.200 109.693 C 21.200 109.935,21.078 110.012,20.930 109.863 C 20.668 109.602,19.759 111.657,19.321 113.500 C 19.203 113.995,18.962 114.400,18.784 114.400 C 18.607 114.400,18.245 115.075,17.980 115.900 C 17.716 116.725,17.272 117.670,16.994 118.000 C 16.716 118.330,16.365 119.185,16.213 119.900 C 16.061 120.615,15.795 121.200,15.623 121.200 C 15.451 121.200,14.986 122.235,14.591 123.500 C 14.197 124.765,13.650 126.160,13.376 126.600 C 13.102 127.040,12.757 127.985,12.607 128.700 C 12.458 129.415,12.191 130.000,12.013 130.000 C 11.835 130.000,11.578 130.585,11.443 131.300 C 11.308 132.015,10.752 133.680,10.208 135.000 C 9.664 136.320,9.215 137.873,9.209 138.451 C 9.204 139.029,8.926 139.730,8.590 140.008 C 8.255 140.286,8.052 140.586,8.140 140.674 C 8.345 140.879,6.970 146.135,6.463 147.081 C 6.252 147.477,6.084 147.890,6.091 148.000 C 6.145 148.911,5.462 152.400,5.229 152.400 C 5.066 152.400,4.914 152.625,4.889 152.900 C 4.723 154.795,3.747 159.614,3.567 159.434 C 3.317 159.183,1.994 168.315,1.998 170.267 C 1.999 170.963,1.844 171.593,1.654 171.667 C -0.341 172.435,-0.422 224.064,1.565 228.600 C 1.757 229.040,2.220 231.919,2.594 234.999 C 2.967 238.078,3.399 240.688,3.554 240.799 C 3.709 240.909,4.070 242.440,4.357 244.200 C 4.644 245.960,5.025 247.580,5.204 247.800 C 5.505 248.172,6.174 251.050,6.015 251.292 C 5.976 251.351,6.155 251.940,6.413 252.600 C 6.672 253.260,7.212 255.060,7.614 256.600 C 8.479 259.915,9.827 264.099,10.597 265.860 C 10.901 266.553,11.270 267.768,11.419 268.560 C 11.567 269.352,11.815 270.000,11.969 270.000 C 12.123 270.000,12.479 270.900,12.761 272.000 C 13.043 273.100,13.414 274.000,13.584 274.000 C 13.755 274.000,14.198 275.080,14.568 276.400 C 14.938 277.720,15.391 278.800,15.573 278.800 C 15.756 278.800,16.109 279.610,16.358 280.600 C 16.608 281.590,16.969 282.400,17.162 282.400 C 17.474 282.400,17.913 283.528,18.236 285.160 C 18.297 285.468,18.525 285.830,18.742 285.964 C 18.959 286.098,19.261 286.703,19.413 287.308 C 19.564 287.913,19.849 288.506,20.044 288.627 C 20.240 288.748,20.400 289.177,20.400 289.581 C 20.400 289.984,20.647 290.409,20.949 290.525 C 21.252 290.641,21.617 291.363,21.760 292.129 C 21.904 292.896,22.287 293.624,22.611 293.749 C 22.935 293.873,23.200 294.332,23.200 294.768 C 23.200 295.204,23.425 295.704,23.700 295.880 C 23.975 296.056,24.830 297.452,25.600 298.983 C 26.370 300.513,27.315 302.122,27.700 302.558 C 28.085 302.994,28.400 303.532,28.400 303.754 C 28.400 304.226,30.460 307.338,30.902 307.534 C 31.069 307.608,31.103 307.833,30.979 308.034 C 30.855 308.235,30.943 308.400,31.176 308.400 C 31.409 308.400,31.600 308.578,31.600 308.796 C 31.600 309.013,32.410 310.256,33.400 311.558 C 34.390 312.860,35.200 314.049,35.200 314.200 C 35.200 314.351,36.010 315.540,37.000 316.842 C 37.990 318.144,38.800 319.378,38.800 319.585 C 38.800 319.791,39.034 320.104,39.319 320.280 C 39.605 320.456,40.853 321.950,42.093 323.600 C 43.333 325.250,44.989 327.267,45.774 328.082 C 46.558 328.897,47.200 329.743,47.200 329.962 C 47.200 330.181,47.515 330.544,47.900 330.768 C 48.285 330.992,48.496 331.181,48.369 331.188 C 48.084 331.203,50.940 334.249,57.382 340.800 C 62.203 345.703,68.800 351.998,68.800 351.696 C 68.800 351.536,68.917 351.634,71.700 354.118 C 72.635 354.953,74.750 356.658,76.400 357.908 C 78.050 359.158,79.580 360.329,79.800 360.510 C 80.020 360.691,81.460 361.720,83.000 362.796 C 84.540 363.872,86.115 365.034,86.500 365.376 C 86.885 365.719,87.285 366.000,87.388 366.000 C 87.651 366.000,91.209 368.456,92.140 369.280 C 92.562 369.654,93.425 370.074,94.058 370.213 C 94.690 370.351,95.114 370.616,95.000 370.800 C 94.886 370.985,95.426 371.345,96.200 371.600 C 96.974 371.855,97.511 372.221,97.392 372.413 C 97.274 372.604,97.902 372.978,98.788 373.244 C 99.675 373.509,100.400 373.851,100.400 374.003 C 100.400 374.154,101.165 374.616,102.100 375.028 C 103.035 375.441,103.890 375.879,104.000 376.003 C 104.110 376.126,105.415 376.843,106.900 377.596 C 108.385 378.348,109.600 379.107,109.600 379.282 C 109.600 379.457,109.735 379.572,109.900 379.538 C 110.065 379.504,110.869 379.774,111.687 380.138 C 112.505 380.502,113.360 380.800,113.587 380.800 C 113.814 380.800,114.000 380.977,114.000 381.194 C 114.000 381.411,114.810 381.792,115.800 382.042 C 116.790 382.291,117.600 382.651,117.600 382.842 C 117.600 383.032,118.410 383.392,119.400 383.642 C 120.390 383.891,121.200 384.244,121.200 384.427 C 121.200 384.609,122.280 385.062,123.600 385.432 C 124.920 385.802,126.000 386.238,126.000 386.401 C 126.000 386.563,126.855 386.931,127.900 387.218 C 128.945 387.506,129.890 387.859,130.000 388.004 C 130.110 388.150,130.920 388.462,131.800 388.698 C 132.680 388.935,134.345 389.489,135.500 389.929 C 136.655 390.370,137.600 390.654,137.600 390.560 C 137.600 390.466,138.249 390.660,139.042 390.992 C 139.836 391.323,140.646 391.495,140.842 391.374 C 141.039 391.252,141.200 391.320,141.200 391.524 C 141.200 391.729,142.274 392.107,143.587 392.366 C 144.900 392.624,146.071 392.991,146.189 393.182 C 146.306 393.372,147.707 393.757,149.301 394.036 C 150.896 394.316,152.310 394.707,152.445 394.906 C 152.579 395.105,152.807 395.237,152.951 395.199 C 153.472 395.061,159.005 396.107,159.200 396.380 C 159.413 396.680,168.277 398.001,170.067 398.000 C 170.653 398.000,171.193 398.155,171.267 398.345 C 171.407 398.708,173.967 398.993,181.600 399.497 C 189.260 400.002,216.807 399.827,222.600 399.236 C 225.460 398.945,228.025 398.697,228.300 398.686 C 228.575 398.676,228.800 398.546,228.800 398.399 C 228.800 398.251,230.811 397.912,233.270 397.646 C 235.728 397.379,237.933 397.041,238.170 396.895 C 238.406 396.749,239.095 396.681,239.700 396.745 C 240.305 396.808,240.800 396.690,240.800 396.482 C 240.800 396.274,241.610 395.991,242.600 395.852 C 243.590 395.713,245.206 395.487,246.192 395.349 C 247.178 395.211,247.900 394.962,247.797 394.796 C 247.695 394.629,249.048 394.260,250.805 393.975 C 252.562 393.689,254.000 393.333,254.000 393.183 C 254.000 393.032,255.125 392.692,256.500 392.426 C 257.875 392.160,259.340 391.758,259.755 391.533 C 260.171 391.308,261.431 390.853,262.555 390.521 C 263.680 390.190,264.780 389.777,265.000 389.604 C 265.220 389.431,266.435 389.060,267.700 388.781 C 268.965 388.501,270.000 388.136,270.000 387.968 C 270.000 387.801,270.585 387.542,271.300 387.393 C 272.015 387.243,272.960 386.895,273.400 386.618 C 273.840 386.341,275.235 385.813,276.500 385.446 C 277.765 385.078,278.800 384.626,278.800 384.441 C 278.800 384.256,279.610 383.877,280.600 383.600 C 281.590 383.323,282.400 382.954,282.400 382.780 C 282.400 382.606,282.942 382.345,283.604 382.199 C 284.266 382.054,285.031 381.724,285.304 381.467 C 285.835 380.967,288.027 380.050,289.500 379.713 C 289.995 379.599,290.400 379.362,290.400 379.184 C 290.400 379.007,291.075 378.643,291.900 378.374 C 292.725 378.106,293.544 377.642,293.720 377.343 C 293.896 377.045,294.372 376.800,294.777 376.800 C 295.183 376.800,295.605 376.565,295.715 376.278 C 295.825 375.991,296.673 375.506,297.600 375.200 C 298.527 374.894,299.369 374.425,299.471 374.158 C 299.574 373.891,300.128 373.554,300.702 373.410 C 301.276 373.266,302.267 372.710,302.904 372.174 C 303.540 371.638,304.235 371.200,304.447 371.200 C 304.890 371.200,307.255 369.597,307.694 369.000 C 307.856 368.780,307.991 368.742,307.994 368.916 C 307.997 369.089,308.225 369.034,308.500 368.792 C 308.952 368.395,309.847 367.793,312.200 366.306 C 312.640 366.028,313.144 365.575,313.320 365.300 C 313.496 365.025,313.830 364.800,314.062 364.800 C 314.294 364.800,315.019 364.350,315.673 363.800 C 316.327 363.250,317.128 362.800,317.454 362.800 C 317.780 362.800,317.956 362.653,317.845 362.473 C 317.734 362.294,318.219 361.812,318.922 361.404 C 319.625 360.995,320.290 360.557,320.400 360.430 C 321.090 359.636,324.896 356.727,324.615 357.209 C 324.425 357.534,324.718 357.350,325.268 356.800 C 325.817 356.250,327.043 355.170,327.992 354.400 C 328.941 353.630,330.015 352.730,330.380 352.400 C 330.744 352.070,332.562 350.428,334.421 348.751 C 339.263 344.381,344.849 338.789,348.757 334.400 C 350.617 332.310,352.288 330.540,352.470 330.467 C 352.651 330.393,352.800 330.161,352.800 329.951 C 352.800 329.740,353.475 328.853,354.300 327.979 C 356.820 325.308,357.583 324.400,357.307 324.400 C 357.162 324.400,357.583 323.815,358.243 323.100 C 358.904 322.385,359.953 321.035,360.576 320.100 C 361.199 319.165,361.862 318.400,362.049 318.400 C 362.236 318.400,362.634 317.815,362.933 317.100 C 363.232 316.385,363.774 315.553,364.138 315.251 C 364.502 314.949,364.800 314.448,364.800 314.138 C 364.800 313.829,365.070 313.471,365.400 313.345 C 365.730 313.218,366.000 312.935,366.000 312.715 C 366.000 312.495,366.540 311.633,367.200 310.800 C 367.860 309.967,368.400 309.086,368.400 308.842 C 368.400 308.599,368.591 308.400,368.824 308.400 C 369.057 308.400,369.136 308.220,369.000 308.000 C 368.864 307.780,368.898 307.599,369.076 307.597 C 369.412 307.595,370.380 306.090,371.712 303.500 C 372.136 302.675,372.630 302.000,372.810 302.000 C 372.990 302.000,373.255 301.460,373.400 300.800 C 373.545 300.140,373.834 299.600,374.042 299.600 C 374.250 299.600,374.595 299.150,374.810 298.600 C 375.518 296.784,376.002 295.814,376.807 294.600 C 377.244 293.940,377.892 292.770,378.246 292.000 C 378.600 291.230,379.059 290.494,379.266 290.363 C 379.473 290.233,379.600 289.963,379.549 289.763 C 379.437 289.326,380.816 286.396,381.452 285.720 C 381.700 285.455,382.023 284.600,382.170 283.820 C 382.316 283.039,382.606 282.400,382.812 282.400 C 383.019 282.400,383.392 281.590,383.642 280.600 C 383.891 279.610,384.244 278.800,384.427 278.800 C 384.609 278.800,385.062 277.720,385.432 276.400 C 385.802 275.080,386.228 274.000,386.377 274.000 C 386.527 274.000,386.879 273.100,387.161 272.000 C 387.443 270.900,387.809 270.000,387.973 270.000 C 388.138 270.000,388.489 269.033,388.754 267.850 C 389.018 266.668,389.587 265.010,390.017 264.166 C 390.448 263.322,390.800 262.300,390.800 261.896 C 390.800 261.491,391.040 260.674,391.334 260.080 C 391.628 259.486,392.098 257.920,392.379 256.600 C 392.659 255.280,393.029 254.020,393.201 253.800 C 393.372 253.580,393.749 252.107,394.038 250.527 C 394.361 248.764,394.725 247.746,394.982 247.891 C 395.212 248.022,395.286 248.000,395.147 247.844 C 395.007 247.688,395.048 246.894,395.238 246.080 C 395.428 245.266,395.697 243.790,395.836 242.800 C 395.975 241.810,396.232 240.910,396.406 240.800 C 396.580 240.690,397.047 237.990,397.444 234.800 C 397.841 231.610,398.272 228.910,398.402 228.800 C 398.533 228.690,398.692 227.790,398.757 226.801 C 398.822 225.811,398.933 224.908,399.004 224.793 C 400.061 223.083,400.055 183.234,398.997 175.200 C 398.895 174.430,398.773 173.215,398.724 172.500 C 398.676 171.785,398.532 171.200,398.405 171.200 C 398.278 171.200,397.950 169.355,397.676 167.100 C 397.403 164.845,397.108 162.640,397.020 162.200 C 396.933 161.760,396.847 160.894,396.831 160.276 C 396.814 159.658,396.642 159.250,396.450 159.369 C 396.257 159.488,395.866 157.888,395.581 155.812 C 395.296 153.736,394.947 152.109,394.806 152.197 C 394.664 152.284,394.323 151.015,394.048 149.378 C 393.773 147.740,393.408 146.400,393.238 146.400 C 393.068 146.400,392.703 145.140,392.428 143.600 C 392.153 142.060,391.802 140.800,391.649 140.800 C 391.496 140.800,391.341 140.485,391.304 140.100 C 391.268 139.715,390.769 138.050,390.195 136.400 C 389.622 134.750,388.953 132.680,388.710 131.800 C 388.467 130.920,388.155 130.110,388.017 130.000 C 387.879 129.890,387.512 128.990,387.200 128.000 C 386.888 127.010,386.515 126.110,386.370 126.000 C 386.225 125.890,385.807 124.765,385.442 123.500 C 385.077 122.235,384.624 121.200,384.436 121.200 C 384.249 121.200,383.891 120.390,383.642 119.400 C 383.392 118.410,383.040 117.600,382.858 117.600 C 382.676 117.600,382.298 116.835,382.019 115.900 C 381.740 114.965,381.396 114.110,381.256 114.000 C 380.782 113.630,379.456 110.605,379.546 110.100 C 379.595 109.825,379.465 109.600,379.257 109.600 C 379.049 109.600,378.681 109.105,378.439 108.500 C 378.197 107.895,377.643 106.815,377.208 106.100 C 376.772 105.385,376.548 104.794,376.708 104.787 C 376.869 104.780,376.713 104.555,376.362 104.287 C 376.010 104.019,375.471 103.102,375.163 102.250 C 374.855 101.397,374.388 100.617,374.126 100.516 C 373.864 100.416,373.534 99.808,373.393 99.167 C 373.252 98.525,372.991 98.000,372.814 98.000 C 372.636 98.000,372.172 97.325,371.781 96.500 C 371.098 95.056,369.663 92.815,369.156 92.400 C 369.022 92.290,368.597 91.587,368.213 90.838 C 367.829 90.088,367.174 89.109,366.757 88.662 C 366.341 88.215,366.000 87.613,366.000 87.325 C 366.000 87.036,365.814 86.800,365.587 86.800 C 365.360 86.800,365.045 86.485,364.887 86.100 C 364.520 85.204,362.337 81.924,361.760 81.400 C 361.518 81.180,360.799 80.280,360.162 79.400 C 359.525 78.520,358.914 77.708,358.802 77.597 C 357.730 76.518,356.725 75.139,357.200 75.399 C 357.530 75.579,357.388 75.293,356.885 74.763 C 353.906 71.626,351.621 69.046,351.728 68.938 C 351.934 68.733,347.730 64.290,341.600 58.236 C 334.082 50.810,331.200 48.046,331.200 48.259 C 331.200 48.354,330.922 48.199,330.583 47.916 C 329.709 47.185,326.359 44.166,325.358 43.207 C 324.895 42.763,324.402 42.400,324.262 42.400 C 323.895 42.400,319.090 38.780,318.500 38.059 C 318.225 37.722,318.000 37.579,318.000 37.740 C 318.000 37.901,317.507 37.575,316.904 37.016 C 316.302 36.457,315.222 35.722,314.504 35.381 C 313.787 35.041,313.200 34.591,313.200 34.381 C 313.200 34.172,313.025 34.000,312.812 34.000 C 312.351 34.000,308.660 31.534,308.466 31.098 C 308.392 30.931,308.167 30.897,307.966 31.021 C 307.765 31.145,307.600 31.085,307.600 30.888 C 307.600 30.502,305.597 29.414,305.100 29.530 C 304.935 29.569,304.800 29.411,304.800 29.179 C 304.800 28.948,304.260 28.570,303.600 28.340 C 302.940 28.110,302.400 27.758,302.400 27.558 C 302.400 27.357,301.680 26.905,300.800 26.553 C 299.920 26.201,299.200 25.781,299.200 25.621 C 299.200 25.460,298.480 25.090,297.600 24.800 C 296.720 24.510,296.000 24.111,296.000 23.915 C 296.000 23.719,295.460 23.370,294.800 23.140 C 294.140 22.910,293.600 22.559,293.600 22.361 C 293.600 22.162,293.465 22.043,293.300 22.095 C 293.135 22.147,291.607 21.517,289.905 20.695 C 288.203 19.873,286.628 19.200,286.405 19.200 C 286.182 19.200,286.000 19.040,286.000 18.844 C 286.000 18.648,285.190 18.249,284.200 17.957 C 283.210 17.665,282.400 17.313,282.400 17.177 C 282.400 17.040,281.635 16.680,280.700 16.376 C 279.765 16.073,278.762 15.594,278.471 15.312 C 278.181 15.030,277.686 14.778,277.371 14.750 C 277.057 14.723,276.665 14.663,276.500 14.617 C 274.470 14.058,274.000 13.866,274.000 13.597 C 274.000 13.422,273.100 13.064,272.000 12.800 C 270.900 12.536,270.000 12.181,270.000 12.010 C 270.000 11.759,268.240 11.224,267.394 11.218 C 267.283 11.217,266.636 10.929,265.957 10.578 C 265.277 10.226,264.424 9.868,264.061 9.781 C 263.697 9.694,262.680 9.427,261.800 9.187 C 260.920 8.947,259.975 8.732,259.700 8.709 C 259.425 8.686,259.200 8.536,259.200 8.377 C 259.200 8.217,258.030 7.854,256.600 7.570 C 255.170 7.286,254.000 6.935,254.000 6.791 C 254.000 6.646,252.695 6.298,251.100 6.018 C 249.505 5.737,248.020 5.366,247.800 5.194 C 247.580 5.023,245.960 4.655,244.200 4.377 C 242.440 4.100,240.910 3.750,240.800 3.600 C 240.586 3.308,231.679 1.987,229.980 1.995 C 229.419 1.998,228.789 1.836,228.580 1.636 C 227.556 0.656,193.182 -0.442,184.800 0.238 M129.874 74.316 C 145.041 82.099,139.787 104.581,122.800 104.584 C 104.328 104.588,100.738 78.940,118.400 73.153 C 120.902 72.334,127.269 72.979,129.874 74.316 M135.101 207.300 L 135.202 291.200 122.801 291.200 L 110.400 291.200 110.400 207.467 C 110.400 161.413,110.523 123.611,110.672 123.461 C 110.822 123.311,116.357 123.236,122.972 123.294 L 135.000 123.400 135.101 207.300 M244.600 123.590 C 250.330 124.199,257.708 125.219,258.091 125.456 C 258.297 125.584,259.756 125.944,261.333 126.258 C 262.910 126.572,264.560 126.979,265.000 127.163 C 265.440 127.347,267.600 128.075,269.800 128.781 C 273.819 130.071,282.220 133.915,285.331 135.889 C 290.009 138.856,291.206 139.679,293.600 141.576 C 309.583 154.240,321.431 175.291,323.587 194.857 C 324.988 207.577,324.988 207.636,323.579 219.400 C 322.987 224.349,320.228 235.164,319.193 236.600 C 319.034 236.820,318.674 237.714,318.392 238.587 C 316.994 242.924,311.177 253.089,307.056 258.400 C 301.251 265.879,285.789 279.200,282.912 279.200 C 282.630 279.200,282.400 279.337,282.400 279.505 C 282.400 279.801,276.219 282.896,273.000 284.212 C 267.272 286.554,261.063 288.429,255.800 289.407 C 253.820 289.775,251.390 290.264,250.400 290.493 C 249.245 290.760,234.446 290.969,209.100 291.076 L 169.600 291.243 169.600 207.488 C 169.600 161.423,169.720 123.613,169.867 123.467 C 170.259 123.074,240.843 123.191,244.600 123.590 M194.400 207.357 L 194.400 269.200 215.393 269.200 C 241.598 269.200,248.769 268.501,259.200 264.927 C 263.187 263.561,270.855 259.869,272.983 258.291 C 280.689 252.575,283.998 249.215,288.488 242.548 C 290.419 239.680,291.973 236.783,294.146 232.000 C 295.530 228.952,297.089 223.544,298.471 217.000 C 299.024 214.379,299.030 199.676,298.479 196.600 C 297.435 190.774,295.788 184.751,294.432 181.800 C 287.443 166.596,275.909 155.375,262.983 151.206 C 262.113 150.926,261.220 150.562,261.000 150.399 C 259.958 149.626,250.741 147.409,244.200 146.358 C 242.880 146.146,231.135 145.870,218.100 145.743 L 194.400 145.513 194.400 207.357 " stroke="none" fill="#a4cc34" fill-rule="evenodd"></path><path id="path2" d="M111.578 77.500 L 110.200 79.000 111.700 77.622 C 112.525 76.863,113.200 76.188,113.200 76.122 C 113.200 75.816,112.862 76.104,111.578 77.500 M133.800 77.600 C 134.659 78.480,135.452 79.200,135.562 79.200 C 135.672 79.200,135.059 78.480,134.200 77.600 C 133.341 76.720,132.548 76.000,132.438 76.000 C 132.328 76.000,132.941 76.720,133.800 77.600 M138.528 88.800 C 138.528 90.230,138.601 90.815,138.689 90.100 C 138.778 89.385,138.778 88.215,138.689 87.500 C 138.601 86.785,138.528 87.370,138.528 88.800 M106.914 88.600 C 106.917 89.700,106.995 90.103,107.087 89.495 C 107.179 88.886,107.177 87.986,107.082 87.495 C 106.987 87.003,106.911 87.500,106.914 88.600 M121.700 104.687 C 122.305 104.778,123.295 104.778,123.900 104.687 C 124.505 104.595,124.010 104.520,122.800 104.520 C 121.590 104.520,121.095 104.595,121.700 104.687 M116.900 123.499 C 120.145 123.566,125.455 123.566,128.700 123.499 C 131.945 123.432,129.290 123.377,122.800 123.377 C 116.310 123.377,113.655 123.432,116.900 123.499 M170.262 123.500 C 170.094 123.772,193.632 123.769,225.000 123.493 C 231.600 123.435,222.026 123.346,203.724 123.294 C 185.422 123.242,170.364 123.335,170.262 123.500 M300.200 148.000 C 301.950 149.760,303.471 151.200,303.581 151.200 C 303.691 151.200,302.350 149.760,300.600 148.000 C 298.850 146.240,297.329 144.800,297.219 144.800 C 297.109 144.800,298.450 146.240,300.200 148.000 M204.700 145.500 C 210.475 145.562,219.925 145.562,225.700 145.500 C 231.475 145.437,226.750 145.386,215.200 145.386 C 203.650 145.386,198.925 145.437,204.700 145.500 M238.900 145.876 C 239.285 145.976,239.915 145.976,240.300 145.876 C 240.685 145.775,240.370 145.693,239.600 145.693 C 238.830 145.693,238.515 145.775,238.900 145.876 M299.350 207.000 C 299.351 209.420,299.416 210.358,299.496 209.085 C 299.576 207.812,299.575 205.832,299.494 204.685 C 299.414 203.538,299.349 204.580,299.350 207.000 M324.114 204.600 C 324.117 205.700,324.195 206.103,324.287 205.495 C 324.379 204.886,324.377 203.986,324.282 203.495 C 324.187 203.003,324.111 203.500,324.114 204.600 M324.114 210.200 C 324.117 211.300,324.195 211.703,324.287 211.095 C 324.379 210.486,324.377 209.586,324.282 209.095 C 324.187 208.603,324.111 209.100,324.114 210.200 M299.978 265.900 L 298.600 267.400 300.100 266.022 C 301.496 264.738,301.784 264.400,301.478 264.400 C 301.412 264.400,300.737 265.075,299.978 265.900 M116.700 291.099 C 120.055 291.166,125.545 291.166,128.900 291.099 C 132.255 291.032,129.510 290.978,122.800 290.978 C 116.090 290.978,113.345 291.032,116.700 291.099 " stroke="none" fill="#c4dc76" fill-rule="evenodd"></path><path id="path3" d="M121.900 73.082 C 122.395 73.178,123.205 73.178,123.700 73.082 C 124.195 72.987,123.790 72.909,122.800 72.909 C 121.810 72.909,121.405 72.987,121.900 73.082 M133.989 78.200 C 135.179 79.520,136.233 80.690,136.331 80.800 C 136.428 80.910,136.318 80.640,136.085 80.200 C 135.852 79.760,134.798 78.590,133.743 77.600 L 131.825 75.800 133.989 78.200 M107.456 84.884 C 107.321 85.388,107.227 86.160,107.246 86.600 C 107.265 87.040,107.445 86.698,107.646 85.840 C 108.036 84.178,107.870 83.340,107.456 84.884 M107.228 91.233 C 107.244 91.765,107.419 92.560,107.619 93.000 C 107.871 93.558,107.907 93.315,107.738 92.200 C 107.455 90.343,107.187 89.836,107.228 91.233 M133.771 99.408 C 132.435 100.807,131.625 101.797,131.971 101.608 C 132.850 101.126,136.895 96.714,136.349 96.832 C 136.267 96.850,135.107 98.009,133.771 99.408 M111.600 99.800 C 112.346 100.570,113.047 101.200,113.157 101.200 C 113.267 101.200,112.746 100.570,112.000 99.800 C 111.254 99.030,110.553 98.400,110.443 98.400 C 110.333 98.400,110.854 99.030,111.600 99.800 M114.800 102.196 C 114.800 102.470,117.249 103.684,117.432 103.501 C 117.519 103.414,116.962 103.044,116.195 102.678 C 115.428 102.312,114.800 102.095,114.800 102.196 M129.200 102.800 C 128.430 103.222,127.944 103.574,128.120 103.583 C 128.544 103.605,130.800 102.432,130.800 102.190 C 130.800 101.928,130.777 101.937,129.200 102.800 M120.305 104.283 C 120.802 104.379,121.522 104.375,121.905 104.275 C 122.287 104.175,121.880 104.096,121.000 104.101 C 120.120 104.105,119.807 104.187,120.305 104.283 M123.905 104.283 C 124.402 104.379,125.122 104.375,125.505 104.275 C 125.887 104.175,125.480 104.096,124.600 104.101 C 123.720 104.105,123.407 104.187,123.905 104.283 M110.899 207.300 L 110.998 291.000 111.100 207.506 L 111.202 124.012 123.101 123.900 L 135.000 123.788 122.900 123.694 L 110.800 123.600 110.899 207.300 M170.185 124.100 C 170.080 124.375,170.041 161.950,170.098 207.600 L 170.202 290.600 170.301 207.302 L 170.400 124.004 206.100 123.900 L 241.800 123.796 206.087 123.698 C 177.813 123.620,170.335 123.704,170.185 124.100 M250.000 124.820 C 252.414 125.250,254.306 125.213,252.200 124.777 C 251.320 124.595,250.060 124.458,249.400 124.473 C 248.500 124.493,248.650 124.580,250.000 124.820 M259.400 126.400 C 259.840 126.589,260.560 126.738,261.000 126.732 C 261.643 126.723,261.604 126.657,260.800 126.400 C 259.432 125.962,258.381 125.962,259.400 126.400 M276.000 131.800 C 276.550 132.114,277.180 132.372,277.400 132.372 C 277.620 132.372,277.350 132.114,276.800 131.800 C 276.250 131.486,275.620 131.228,275.400 131.228 C 275.180 131.228,275.450 131.486,276.000 131.800 M282.000 134.579 C 282.000 134.689,282.540 135.059,283.200 135.400 C 283.860 135.741,284.400 135.931,284.400 135.821 C 284.400 135.711,283.860 135.341,283.200 135.000 C 282.540 134.659,282.000 134.469,282.000 134.579 M295.238 143.700 C 295.332 143.755,296.127 144.430,297.004 145.200 L 298.600 146.600 297.222 145.100 C 296.463 144.275,295.668 143.600,295.455 143.600 C 295.241 143.600,295.144 143.645,295.238 143.700 M194.198 207.200 L 194.200 269.400 216.700 269.405 L 239.200 269.410 216.801 269.302 L 194.403 269.193 194.299 207.097 L 194.196 145.000 194.198 207.200 M236.900 145.487 C 237.505 145.578,238.495 145.578,239.100 145.487 C 239.705 145.395,239.210 145.320,238.000 145.320 C 236.790 145.320,236.295 145.395,236.900 145.487 M240.833 145.745 C 240.925 145.825,242.260 145.989,243.800 146.109 C 245.498 146.241,246.128 146.202,245.400 146.011 C 244.184 145.691,240.527 145.478,240.833 145.745 M252.400 147.600 C 252.950 147.776,253.760 147.920,254.200 147.920 C 254.833 147.920,254.792 147.854,254.000 147.600 C 253.450 147.424,252.640 147.280,252.200 147.280 C 251.567 147.280,251.608 147.346,252.400 147.600 M303.225 151.431 C 303.981 152.328,304.681 152.997,304.780 152.917 C 304.879 152.838,304.260 152.104,303.405 151.287 L 301.850 149.800 303.225 151.431 M262.800 150.733 C 263.130 150.936,263.850 151.224,264.400 151.371 C 265.095 151.557,265.217 151.525,264.800 151.267 C 264.470 151.064,263.750 150.776,263.200 150.629 C 262.505 150.443,262.383 150.475,262.800 150.733 M305.947 154.600 C 306.394 155.260,307.233 156.340,307.813 157.000 L 308.866 158.200 308.053 157.000 C 307.606 156.340,306.767 155.260,306.187 154.600 L 305.134 153.400 305.947 154.600 M273.000 155.807 C 273.440 156.166,274.160 156.635,274.600 156.851 L 275.400 157.244 274.600 156.593 C 274.160 156.234,273.440 155.765,273.000 155.549 L 272.200 155.156 273.000 155.807 M282.600 163.600 C 284.350 165.360,285.871 166.800,285.981 166.800 C 286.091 166.800,284.750 165.360,283.000 163.600 C 281.250 161.840,279.729 160.400,279.619 160.400 C 279.509 160.400,280.850 161.840,282.600 163.600 M313.000 165.200 C 313.341 165.860,313.711 166.400,313.821 166.400 C 313.931 166.400,313.741 165.860,313.400 165.200 C 313.059 164.540,312.689 164.000,312.579 164.000 C 312.469 164.000,312.659 164.540,313.000 165.200 M316.028 171.000 C 316.028 171.220,316.286 171.850,316.600 172.400 C 316.914 172.950,317.172 173.220,317.172 173.000 C 317.172 172.780,316.914 172.150,316.600 171.600 C 316.286 171.050,316.028 170.780,316.028 171.000 M293.478 178.995 C 293.844 179.762,294.214 180.319,294.301 180.232 C 294.484 180.049,293.270 177.600,292.996 177.600 C 292.895 177.600,293.112 178.228,293.478 178.995 M295.267 183.220 C 295.501 183.892,295.767 184.367,295.857 184.276 C 296.056 184.078,295.301 182.000,295.031 182.000 C 294.927 182.000,295.033 182.549,295.267 183.220 M321.450 186.800 C 321.590 187.570,321.861 188.560,322.054 189.000 C 322.294 189.549,322.324 189.361,322.150 188.400 C 322.010 187.630,321.739 186.640,321.546 186.200 C 321.306 185.651,321.276 185.839,321.450 186.800 M296.439 186.400 C 296.424 186.510,296.667 187.410,296.979 188.400 C 297.291 189.390,297.550 189.840,297.555 189.400 C 297.563 188.703,296.508 185.871,296.439 186.400 M298.681 196.400 C 298.806 197.610,298.974 198.675,299.054 198.767 C 299.335 199.087,299.117 196.191,298.787 195.200 C 298.571 194.554,298.534 194.980,298.681 196.400 M323.283 196.400 C 323.270 197.170,323.403 198.610,323.580 199.600 C 324.012 202.031,324.046 199.747,323.618 197.000 C 323.364 195.365,323.303 195.255,323.283 196.400 M299.309 201.200 C 299.309 202.190,299.387 202.595,299.482 202.100 C 299.578 201.605,299.578 200.795,299.482 200.300 C 299.387 199.805,299.309 200.210,299.309 201.200 M299.301 212.600 C 299.305 213.480,299.387 213.793,299.483 213.295 C 299.579 212.798,299.575 212.078,299.475 211.695 C 299.375 211.313,299.296 211.720,299.301 212.600 M323.400 216.000 C 323.243 217.566,323.200 218.933,323.304 219.037 C 323.408 219.142,323.620 217.944,323.775 216.375 C 323.930 214.806,323.973 213.439,323.871 213.338 C 323.769 213.236,323.557 214.434,323.400 216.000 M298.655 216.655 C 298.513 217.686,298.474 218.608,298.569 218.702 C 298.663 218.796,298.865 218.039,299.018 217.018 C 299.171 215.998,299.210 215.076,299.104 214.971 C 298.998 214.865,298.796 215.623,298.655 216.655 M297.029 224.229 C 296.881 224.815,296.838 225.372,296.932 225.466 C 297.027 225.560,297.224 225.158,297.371 224.571 C 297.519 223.985,297.562 223.428,297.468 223.334 C 297.373 223.240,297.176 223.642,297.029 224.229 M321.849 225.415 C 321.712 225.773,321.615 226.366,321.634 226.733 C 321.653 227.100,321.827 226.869,322.021 226.220 C 322.398 224.958,322.265 224.333,321.849 225.415 M293.472 234.219 C 292.532 236.189,292.664 236.524,293.647 234.662 C 294.093 233.816,294.387 233.054,294.301 232.967 C 294.214 232.881,293.841 233.444,293.472 234.219 M291.800 237.600 C 291.459 238.260,291.269 238.800,291.379 238.800 C 291.489 238.800,291.859 238.260,292.200 237.600 C 292.541 236.940,292.731 236.400,292.621 236.400 C 292.511 236.400,292.141 236.940,291.800 237.600 M286.572 245.900 C 286.176 246.505,284.130 248.816,282.026 251.035 L 278.200 255.070 282.463 250.778 C 284.807 248.418,286.928 246.107,287.177 245.643 C 287.825 244.432,287.421 244.604,286.572 245.900 M305.174 259.700 C 304.210 260.855,303.739 261.547,304.126 261.238 C 304.904 260.618,307.368 257.600,307.096 257.600 C 307.002 257.600,306.137 258.545,305.174 259.700 M301.781 263.700 L 300.200 265.400 301.900 263.819 C 303.481 262.348,303.784 262.000,303.481 262.000 C 303.416 262.000,302.651 262.765,301.781 263.700 M256.456 266.059 C 255.717 266.272,255.187 266.520,255.279 266.612 C 255.481 266.814,258.400 266.037,258.400 265.781 C 258.400 265.546,258.082 265.591,256.456 266.059 M298.000 267.400 C 297.028 268.390,296.323 269.200,296.433 269.200 C 296.543 269.200,297.428 268.390,298.400 267.400 C 299.372 266.410,300.077 265.600,299.967 265.600 C 299.857 265.600,298.972 266.410,298.000 267.400 M248.400 268.000 C 247.056 268.431,248.508 268.431,250.200 268.000 C 251.278 267.726,251.298 267.694,250.400 267.687 C 249.850 267.683,248.950 267.824,248.400 268.000 M293.600 271.270 C 292.068 272.688,291.886 272.939,293.000 272.097 C 294.484 270.976,296.334 269.178,295.962 269.217 C 295.873 269.227,294.810 270.151,293.600 271.270 M262.056 287.259 C 261.317 287.472,260.790 287.723,260.885 287.818 C 260.980 287.913,261.854 287.740,262.829 287.435 C 264.818 286.811,264.145 286.658,262.056 287.259 M255.800 288.800 C 254.711 289.077,254.693 289.107,255.600 289.125 C 256.150 289.135,256.960 288.989,257.400 288.800 C 258.386 288.376,257.466 288.376,255.800 288.800 M247.300 290.276 C 247.685 290.376,248.315 290.376,248.700 290.276 C 249.085 290.175,248.770 290.093,248.000 290.093 C 247.230 290.093,246.915 290.175,247.300 290.276 M205.800 290.800 L 170.200 291.006 205.400 291.054 C 224.760 291.079,241.860 290.971,243.400 290.813 L 246.200 290.526 243.800 290.560 C 242.480 290.578,225.380 290.686,205.800 290.800 " stroke="none" fill="#e0f0b9" fill-rule="evenodd"></path><path id="path4" d="M110.585 123.700 C 110.480 123.975,110.441 161.820,110.497 207.800 L 110.600 291.400 110.800 207.300 C 110.910 161.045,110.949 123.200,110.887 123.200 C 110.826 123.200,110.689 123.425,110.585 123.700 M134.800 207.320 L 135.000 291.400 135.101 207.621 C 135.156 161.542,135.066 123.706,134.901 123.541 C 134.735 123.375,134.690 161.076,134.800 207.320 M169.785 123.700 C 169.680 123.975,169.641 161.820,169.697 207.800 L 169.800 291.400 170.000 207.300 C 170.110 161.045,170.149 123.200,170.087 123.200 C 170.026 123.200,169.889 123.425,169.785 123.700 M238.100 123.491 C 238.925 123.578,240.275 123.578,241.100 123.491 C 241.925 123.405,241.250 123.334,239.600 123.334 C 237.950 123.334,237.275 123.405,238.100 123.491 M244.505 123.887 C 245.114 123.979,246.014 123.977,246.505 123.882 C 246.997 123.787,246.500 123.711,245.400 123.714 C 244.300 123.717,243.897 123.795,244.505 123.887 M236.305 145.883 C 236.802 145.979,237.522 145.975,237.905 145.875 C 238.287 145.775,237.880 145.696,237.000 145.701 C 236.120 145.705,235.807 145.787,236.305 145.883 M282.800 164.125 C 282.800 164.194,283.385 164.779,284.100 165.425 L 285.400 166.600 284.225 165.300 C 283.130 164.088,282.800 163.816,282.800 164.125 M324.528 207.200 C 324.528 208.630,324.601 209.215,324.689 208.500 C 324.778 207.785,324.778 206.615,324.689 205.900 C 324.601 205.185,324.528 205.770,324.528 207.200 M308.800 255.600 C 308.330 256.260,308.036 256.800,308.146 256.800 C 308.256 256.800,308.730 256.260,309.200 255.600 C 309.670 254.940,309.964 254.400,309.854 254.400 C 309.744 254.400,309.270 254.940,308.800 255.600 M241.505 268.683 C 242.002 268.779,242.722 268.775,243.105 268.675 C 243.487 268.575,243.080 268.496,242.200 268.501 C 241.320 268.505,241.007 268.587,241.505 268.683 "/></svg>